#tb 0: 1/15
#tb 1: 1/22050
0,          0,          0,        1,   115200, 0x375ec573
1,          0,          0,     1484,     5936, 0x00000000
0,          1,          1,        1,   115200, 0x375ec573
1,       1484,       1484,     1456,     5824, 0x00000000
0,          2,          2,        1,   115200, 0x375ec573
1,       2940,       2940,     1484,     5936, 0x00000000
0,          3,          3,        1,   115200, 0x375ec573
1,       4424,       4424,     1456,     5824, 0x00000000
0,          4,          4,        1,   115200, 0x375ec573
1,       5880,       5880,     1484,     5936, 0x00000000
0,          5,          5,        1,   115200, 0x375ec573
1,       7364,       7364,     1456,     5824, 0x00000000
0,          6,          6,        1,   115200, 0x375ec573
1,       8820,       8820,     1484,     5936, 0x00000000
0,          7,          7,        1,   115200, 0x375ec573
1,      10304,      10304,     1456,     5824, 0x0f06f5bb
0,          8,          8,        1,   115200, 0x0b4d31bf
1,      11760,      11760,     1484,     5936, 0xb0dbfc46
0,          9,          9,        1,   115200, 0xdd724598
1,      13244,      13244,     1456,     5824, 0x9daa9f9c
0,         10,         10,        1,   115200, 0xc3077e75
1,      14700,      14700,     1484,     5936, 0x61400d2f
0,         11,         11,        1,   115200, 0xbf70778a
1,      16184,      16184,     1456,     5824, 0x34a5b0e3
0,         12,         12,        1,   115200, 0x117eb766
1,      17640,      17640,     1484,     5936, 0x6e546f72
0,         13,         13,        1,   115200, 0x4617fbad
1,      19124,      19124,     1456,     5824, 0x4f093b35
0,         14,         14,        1,   115200, 0x5f5b02d2
1,      20580,      20580,     1484,     5936, 0x95b5b599
0,         15,         15,        1,   115200, 0x2a9c5325
1,      22064,      22064,     1456,     5824, 0x75e15e60
0,         16,         16,        1,   115200, 0x14a89e2a
1,      23520,      23520,     1484,     5936, 0xd1077d39
0,         17,         17,        1,   115200, 0xe69aa994
1,      25004,      25004,     1456,     5824, 0x956e21ca
0,         18,         18,        1,   115200, 0xfbacf589
1,      26460,      26460,     1484,     5936, 0x33bac234
0,         19,         19,        1,   115200, 0x1d714c6e
1,      27944,      27944,     1456,     5824, 0x5df37824
0,         20,         20,        1,   115200, 0x6eff66cb
1,      29400,      29400,     1484,     5936, 0xc174af24
0,         21,         21,        1,   115200, 0xee21c1cb
1,      30884,      30884,     1456,     5824, 0xe5dc2159
0,         22,         22,        1,   115200, 0xce714ada
1,      32340,      32340,     1484,     5936, 0x63ffc8b1
0,         23,         23,        1,   115200, 0xf89d56c3
1,      33824,      33824,     1456,     5824, 0xefe4c365
0,         24,         24,        1,   115200, 0x65fd5e60
1,      35280,      35280,     1484,     5936, 0x2174304d
0,         25,         25,        1,   115200, 0x0c256424
